<?xml version="1.0" encoding="UTF-8"?>
<svg id="Layer_2" data-name="Layer 2" xmlns="http://www.w3.org/2000/svg" viewBox="0 0 535.33 128.04">
  <defs>
    <style>
      .cls-1 {
        font-family: CMUSerif-Roman, 'CMU Serif';
        font-size: 83px;
        letter-spacing: .07em;
      }

      .cls-1, .cls-2 {
        fill: #fff;
      }
    </style>
  </defs>
  <g id="Layer_1-2" data-name="Layer 1">
    <g>
      <text class="cls-1" transform="translate(0 69.84)"><tspan x="0" y="0">NOBILEZZE</tspan></text>
      <g>
        <path class="cls-2" d="M211.92,127.79c-4.02,0-7.26-1.23-9.64-3.65-2.4-2.44-3.61-5.8-3.61-9.99s1.22-7.55,3.61-9.99c2.38-2.42,5.63-3.65,9.64-3.65,3.09,0,5.75.78,7.9,2.3,2.01,1.42,3.17,3.21,3.54,5.46h-2.97c-.27-1.66-1.14-3.01-2.59-4.02-1.55-1.08-3.52-1.63-5.85-1.63-3.15,0-5.69,1.02-7.54,3.04-1.83,1.99-2.75,4.85-2.75,8.49s.92,6.49,2.73,8.48c1.84,2.02,4.35,3.05,7.48,3.05,2.43,0,4.43-.56,5.95-1.67,1.43-1.04,2.29-2.51,2.57-4.37h2.98c-.36,2.5-1.52,4.48-3.45,5.88-2.09,1.51-4.78,2.28-8,2.28Z"/>
        <polygon class="cls-2" points="237.97 127.5 237.97 100.59 240.66 100.59 240.66 125.19 256.42 125.38 256.42 127.53 237.97 127.5"/>
        <path class="cls-2" d="M281.29,127.52c-3.38,0-5.92-.6-7.56-1.78-1.64-1.18-2.69-2.58-3.12-4.16-.45-1.65-.68-3.6-.68-5.8v-15.65h2.93v15.59c0,3.85.71,6.34,2.18,7.6,1.44,1.24,3.54,1.87,6.25,1.87s4.81-.63,6.25-1.87c1.47-1.27,2.18-3.75,2.18-7.6v-15.59h2.95v15.65c0,3.28-.42,5.72-1.26,7.24-.82,1.49-2.07,2.62-3.72,3.37-1.68.76-3.84,1.14-6.4,1.14Z"/>
        <path class="cls-2" d="M310.25,128.04v-26.92h10.53c3.17,0,5.69.61,7.48,1.81,1.76,1.18,2.62,2.76,2.62,4.82,0,2.51-1.36,4.31-4.17,5.53l-1.38.6,1.48.34c1.87.43,3.29,1.21,4.2,2.33.92,1.13,1.39,2.44,1.39,3.88,0,2.48-.9,4.32-2.76,5.62-1.87,1.32-4.66,1.99-8.3,1.99h-11.1ZM313.25,125.73h8.05c5.27,0,7.95-1.78,7.95-5.3,0-1.82-.65-3.18-1.93-4.05-1.25-.84-3.39-1.25-6.55-1.25h-7.52v10.6ZM313.25,112.82h7.48c2.42,0,4.16-.35,5.34-1.07,1.23-.75,1.86-1.99,1.86-3.68,0-1.53-.61-2.71-1.8-3.5-1.16-.76-3.05-1.14-5.79-1.14h-7.1v9.38Z"/>
      </g>
    </g>
  </g>
</svg>